HIERARCHY
ROOT Hips
{
  OFFSET 52.3554 91.5833 3.17846
  CHANNELS 6 Xposition Yposition Zposition Zrotation Xrotation Yrotation
  JOINT spine
  {
    OFFSET 0 6.84637 0.3937
    CHANNELS 3 Zrotation Xrotation Yrotation
    JOINT spine1
    {
      OFFSET 0 9.49621 0
      CHANNELS 3 Zrotation Xrotation Yrotation
      JOINT spine2
      {
        OFFSET 0 9.09909 0
        CHANNELS 3 Zrotation Xrotation Yrotation
        JOINT Neck
        {
          OFFSET 0 23.3612 1.11378
          CHANNELS 3 Zrotation Xrotation Yrotation
          JOINT Head
          {
            OFFSET 0 7.05802 0
            CHANNELS 3 Zrotation Xrotation Yrotation
            End Site
            {
              OFFSET 0 17.0844 -5.63419
            }
          }
        }
        JOINT RightShoulder
        {
          OFFSET -3.83136 9.82631 -0.533491
          CHANNELS 3 Zrotation Xrotation Yrotation
          JOINT RightArm
          {
            OFFSET 0 12.8881 0
            CHANNELS 3 Zrotation Xrotation Yrotation
            JOINT RightArmRoll
            {
              OFFSET 0 6.50616 0
              CHANNELS 3 Zrotation Xrotation Yrotation
              JOINT RightForeArm
              {
                OFFSET 0 18.9501 0
                CHANNELS 3 Zrotation Xrotation Yrotation
                JOINT RightForeArmRoll
                {
                  OFFSET 0 7.30092 0
                  CHANNELS 3 Zrotation Xrotation Yrotation
                  JOINT RightHand
                  {
                    OFFSET 0 14.6514 0
                    CHANNELS 3 Zrotation Xrotation Yrotation
                    End Site
                    {
                      OFFSET 0 0 0
                    }
                  }
                }
              }
            }
          }
        }
        JOINT LeftShoulder
        {
          OFFSET 3.83136 9.82631 -0.533491
          CHANNELS 3 Zrotation Xrotation Yrotation
          JOINT LeftArm
          {
            OFFSET 0 12.8881 0
            CHANNELS 3 Zrotation Xrotation Yrotation
            JOINT LeftArmRoll
            {
              OFFSET 0 6.50617 0
              CHANNELS 3 Zrotation Xrotation Yrotation
              JOINT LeftForeArm
              {
                OFFSET 0 18.9501 0
                CHANNELS 3 Zrotation Xrotation Yrotation
                JOINT LeftForeArmRoll
                {
                  OFFSET 0 7.30092 0
                  CHANNELS 3 Zrotation Xrotation Yrotation
                  JOINT LeftHand
                  {
                    OFFSET 0 14.6514 0
                    CHANNELS 3 Zrotation Xrotation Yrotation
                    End Site
                    {
                      OFFSET 0 0 0
                    }
                  }
                }
              }
            }
          }
        }
      }
    }
  }
  JOINT RightUpLeg
  {
    OFFSET -6.06837 -1.11278 -0.933477
    CHANNELS 3 Zrotation Xrotation Yrotation
    JOINT RightUpLegRoll
    {
      OFFSET 0 17.1796 0
      CHANNELS 3 Zrotation Xrotation Yrotation
      JOINT RightLeg
      {
        OFFSET 0 -21.2743 0
        CHANNELS 3 Zrotation Xrotation Yrotation
        JOINT RightLegRoll
        {
          OFFSET 0 21.3439 0
          CHANNELS 3 Zrotation Xrotation Yrotation
          JOINT RightFoot
          {
            OFFSET 0 17.7652 0
            CHANNELS 3 Zrotation Xrotation Yrotation
            JOINT RightToeBase
            {
              OFFSET 0 14.8508 0
              CHANNELS 3 Zrotation Xrotation Yrotation
              End Site
              {
                OFFSET 0.0062947 7.19213 -0.829005
              }
            }
          }
        }
      }
    }
  }
  JOINT LeftUpLeg
  {
    OFFSET 6.06837 -1.11278 -0.933477
    CHANNELS 3 Zrotation Xrotation Yrotation
    JOINT LeftUpLegRoll
    {
      OFFSET 0 17.1797 0
      CHANNELS 3 Zrotation Xrotation Yrotation
      JOINT LeftLeg
      {
        OFFSET 0 21.2742 0
        CHANNELS 3 Zrotation Xrotation Yrotation
        JOINT LeftLegRoll
        {
          OFFSET 0 21.5412 0
          CHANNELS 3 Zrotation Xrotation Yrotation
          JOINT LeftFoot
          {
            OFFSET 0 17.5679 0
            CHANNELS 3 Zrotation Xrotation Yrotation
            JOINT LeftToeBase
            {
              OFFSET 0 14.8508 0
              CHANNELS 3 Zrotation Xrotation Yrotation
              End Site
              {
                OFFSET -0.0282102 7.19214 -0.829005
              }
            }
          }
        }
      }
    }
  }
}
MOTION
Frames: 5
Frame Time: 0.00208333
53.1415 91.1714 3.09608 -2.00269 -0.542527 10.2434 0.0699084 -1.31786 0.286243 0.143382 1.36736 0.564712 0.136714 3.01241 0.562629 -9.7789 26.1045 -1.03453 15.9383 -7.36375 -2.54053 40.6346 1.02395 3.45649 100.997 62.3963 4.15205 1.42822e-007 -4.87977e-007 -4.46147e-006 4.51099 55.6561 -3.66055 -8.94532e-006 -7.79427e-006 -3.00271 8.02888 -4.95147 0.697695 -53.569 -11.3592 7.15484 -113.163 20.661 58.355 -6.00928e-007 8.38744e-007 2.73694e-006 148.361 63.3728 -121.443 -1.3052e-005 -4.85462e-006 2.99999 -8.02917 -4.95164 -0.697735 177.841 4.08845 0.136377 -180 7.01548e-015 178.925 178.015 8.14095 179.827 3.02796e-006 7.70169e-007 -0.0268092 -16.4417 64.599 17.0874 8.13649 25.2327 -3.48774 -171.231 8.71671 -1.92432 4.54188e-006 -4.6773e-006 -0.984311 -0.962723 -13.941 0.37566 -6.39798e-007 2.19306e-006 -0.247588 19.82 69.4057 -20.7984 -8.12755 25.2331 3.48393 
53.147 91.1792 3.13872 -2.04255 -0.72546 9.9817 0.0864709 -1.29221 0.268967 0.176335 1.41881 0.528529 0.170128 3.06386 0.52588 -9.58212 26.1044 -0.992978 15.6508 -7.36729 -2.46342 40.7554 0.978423 3.39586 101.511 62.0496 3.52702 1.42822e-007 -4.87977e-007 -4.46147e-006 4.60821 56.3098 -3.75119 -8.94531e-006 -7.79427e-006 -3.0027 8.02888 -4.95147 0.697695 -53.3942 -11.3388 7.14146 -113.435 21.6221 58.1747 -6.00928e-007 8.38744e-007 2.73694e-006 148.271 63.8886 -121.946 -1.3052e-005 -4.85462e-006 2.99999 -8.02917 -4.95164 -0.697735 177.936 3.88073 0.0755435 -180 7.01547e-015 178.925 178.034 8.05477 179.828 3.02796e-006 7.70169e-007 -0.0298101 -16.4352 64.5882 17.0808 8.13649 25.2327 -3.48774 -171.127 8.47375 -2.01327 4.54188e-006 -4.6773e-006 -0.98782 -0.981446 -13.9694 0.373476 -6.39798e-007 2.19306e-006 -0.247792 19.824 69.4113 -20.8046 -8.12755 25.2331 3.48393 
53.1573 91.1732 3.10964 -2.0745 -0.870498 9.70507 0.100138 -1.27373 0.254143 0.203543 1.45588 0.49753 0.197731 3.10093 0.494411 -9.40759 26.1153 -0.942226 15.3812 -7.38182 -2.38279 40.8645 0.936589 3.34053 102.02 61.6892 2.91822 1.42822e-007 -4.87977e-007 -4.46147e-006 4.69996 56.9537 -3.83975 -8.94532e-006 -7.79427e-006 -3.00268 8.02888 -4.95147 0.697695 -53.228 -11.31 7.1221 -113.709 22.5696 57.9463 -6.00928e-007 8.38744e-007 2.73694e-006 148.174 64.4321 -122.46 -1.3052e-005 -4.85462e-006 2.99999 -8.02917 -4.95164 -0.697735 178.013 3.7289 0.0215407 -180 7.01547e-015 178.925 178.056 7.99012 179.828 3.02796e-006 7.70169e-007 -0.0322878 -16.4307 64.5807 17.0763 8.13649 25.2327 -3.48774 -171.04 8.26435 -2.09285 4.54188e-006 -4.6773e-006 -0.991141 -1.00389 -13.993 0.370677 -6.39798e-007 2.19306e-006 -0.247817 19.8243 69.4128 -20.8064 -8.12755 25.2331 3.48393 
53.1506 91.1835 3.14449 -2.1012 -0.986764 9.41494 0.11171 -1.26066 0.24127 0.226589 1.48208 0.470629 0.221119 3.12713 0.46711 -9.25344 26.1357 -0.882235 15.1288 -7.40595 -2.29796 40.9616 0.899284 3.29126 102.524 61.3148 2.32762 1.42822e-007 -4.87977e-007 -4.46147e-006 4.78916 57.5906 -3.9289 -8.94531e-006 -7.79427e-006 -3.00266 8.02888 -4.95147 0.697695 -53.0686 -11.2744 7.09811 -113.973 23.5241 57.6525 -6.00928e-007 8.38744e-007 2.73694e-006 148.099 65.0087 -123.025 -1.3052e-005 -4.85462e-006 2.99999 -8.02917 -4.95164 -0.697735 178.079 3.61991 -0.0286112 -180 7.01547e-015 178.925 178.079 7.94218 179.828 3.02796e-006 7.70169e-007 -0.034362 -16.4277 64.5758 17.0734 8.13649 25.2327 -3.48774 -170.963 8.07991 -2.16673 4.54188e-006 -4.6773e-006 -0.994337 -1.02971 -14.0134 0.36733 -6.39798e-007 2.19306e-006 -0.247712 19.8219 69.4112 -20.8049 -8.12755 25.2331 3.48393 
53.1431 91.1846 3.15853 -2.12282 -1.07705 9.11296 0.121386 -1.25246 0.230114 0.245858 1.49853 0.447342 0.240683 3.14359 0.443489 -9.11711 26.1642 -0.814334 14.8913 -7.43846 -2.20965 41.0482 0.865537 3.24699 103.022 60.9274 1.75335 1.42822e-007 -4.87977e-007 -4.46147e-006 4.87536 58.2212 -4.01825 -8.94531e-006 -7.79427e-006 -3.00265 8.02888 -4.95147 0.697695 -52.9153 -11.2324 7.0697 -114.226 24.486 57.2989 -6.00928e-007 8.38744e-007 2.73694e-006 148.047 65.6154 -123.638 -1.3052e-005 -4.85462e-006 2.99999 -8.02917 -4.95164 -0.697735 178.136 3.54939 -0.0750653 -180 7.01547e-015 178.925 178.103 7.90927 179.827 3.02796e-006 7.70169e-007 -0.0360724 -16.426 64.5732 17.0721 8.13649 25.2327 -3.48774 -170.897 7.91798 -2.23522 4.54188e-006 -4.6773e-006 -0.997417 -1.05849 -14.0308 0.363498 -6.39798e-007 2.19306e-006 -0.247485 19.8169 69.4068 -20.8005 -8.12755 25.2331 3.48393 
